<svg xmlns="http://www.w3.org/2000/svg" width="110" height="150" viewBox="0 0 110 150">
  <g id="accessibility" transform="translate(-251.239 -1279.198)">
    <path id="accessibility-2" data-name="accessibility" d="M56.879,106.25c-5.214.069-8.409,5.6-10.879,10.05-5.307,9.594-11.055,19.756-16,28.306-1.716,2.969-3.575,5.369-6.7,5.394s-5.786-4.281-4.274-7.906C23.043,132.475,40.5,97.862,40.5,68.75c0-10.081-4.719-12.5-11-12.5H7.5C4.464,56.25,2,53.45,2,50s2.464-6.25,5.5-6.25h99c3.041,0,5.5,2.806,5.5,6.25s-2.459,6.25-5.5,6.25h-22c-6.275,0-11,2.419-11,12.5,0,29.112,17.462,63.725,21.483,73.344,1.513,3.625-1.139,7.931-4.274,7.906s-4.994-2.425-6.7-5.394c-4.944-8.55-10.692-18.712-16-28.306-2.481-4.481-5.709-10.069-11-10.05ZM57,0c9.114,0,16.5,8.4,16.5,18.75S57,37.5,57,37.5,40.5,29.1,40.5,18.75,47.9,0,57,0" transform="translate(249.239 1279.198)" fill="#305399" fill-rule="evenodd"/>
  </g>
</svg>
