<svg xmlns="http://www.w3.org/2000/svg" width="1994.801" height="3335.541" viewBox="0 0 1994.801 3335.541">
  <g id="Group_137" data-name="Group 137" transform="translate(367.71 46.249)">
    <path id="Fill-11" d="M258.173,1032.37c7.42,15.208-.506,29.7-10.02,42.917-8.752,12.16-17.339,22.9-33.879,24.421-21.237,1.953-38.509-13.695-36.627-35.369a98.267,98.267,0,0,1,19.855-51.415c5.337-7.092,12.56-6.753,20.191-7.252C235.344,1008.029,250.511,1016.665,258.173,1032.37Z" transform="translate(386.901 989.469)" fill="#70a3c5" fill-rule="evenodd"/>
    <path id="Fill-172" d="M555.148,1306.1c-1.068,5.127-4.332,11.083-6.942,11.75-5.715,1.459-10.641-10.381-10.893-17.721s5.427-13.132,9.886-11.64S556.413,1300.026,555.148,1306.1Z" transform="translate(-92.892 -1245.693)" fill="#3ababa" fill-rule="evenodd"/>
    <path id="Fill-172-2" data-name="Fill-172" d="M555.148,1306.1c-1.068,5.127-4.332,11.083-6.942,11.75-5.715,1.459-10.641-10.381-10.893-17.721s3.922-12.012,9.886-11.64S556.413,1300.026,555.148,1306.1Z" transform="translate(335.108 -1159.693)" fill="#ebb044" fill-rule="evenodd"/>
    <path id="Fill-1721" d="M273.831,840.8c-5.468-.171-14.638-9.207-12.629-14.049,1.7-4.089,6.883-8.841,11.029-9.373,9.079-1.164,17.59,6.9,17.306,14.136-.237,6.038-6.231,9.582-15.706,9.286" transform="translate(-162.513 -179.44)" fill="#ebb044" fill-rule="evenodd"/>
    <path id="Fill-11-2" data-name="Fill-11" d="M258.173,1032.37c7.42,15.208-.506,29.7-10.02,42.917-8.752,12.16-17.339,22.9-33.879,24.421-21.237,1.953-38.509-13.695-36.627-35.369a98.267,98.267,0,0,1,19.855-51.415c5.337-7.092,12.56-6.753,20.191-7.252C235.344,1008.029,250.511,1016.665,258.173,1032.37Z" transform="translate(225.487 -332.531)" fill="#ebb044" fill-rule="evenodd"/>
    <path id="Fill-11-3" data-name="Fill-11" d="M258.173,1032.37c7.42,15.208-.506,29.7-10.02,42.917-8.752,12.16-17.339,22.9-33.879,24.421-21.237,1.953-38.509-13.695-36.627-35.369a98.267,98.267,0,0,1,19.855-51.415c5.337-7.092,12.56-6.753,20.191-7.252C235.344,1008.029,250.511,1016.665,258.173,1032.37Z" transform="matrix(-0.105, 0.995, -0.995, -0.105, 2349.719, -107.815)" fill="#ebb044" fill-rule="evenodd"/>
    <path id="Fill-1903" d="M497.646,162.9c8.59,13.064-15.636,31.84-33.514,48.532s-58.182-1.337-43.742-17.665a202.616,202.616,0,0,1,36.275-31.943c5.676-3.93,31.64-13.132,40.981,1.076Z" transform="translate(-192.388 -0.713)" fill="#587bc9" fill-rule="evenodd"/>
    <path id="Fill-1905" d="M1279.96,138.469c27.642-37.662,97.135-18.287,153.168,15.649,29.112,17.632,45.34,46.8,52.808,76.057,14.3,56.031-26.061,93.878-75.9,73.428-36.667-15.047-19.626-53.765-56.092-73.557-34.34-18.637-101.627-53.915-73.984-91.577Z" transform="matrix(-0.259, -0.966, 0.966, -0.259, 166.294, 1789.219)" fill="#3ababa" fill-rule="evenodd"/>
    <path id="Fill-1724" d="M1198.11,471.415c5.8-.181,14.039-6.187,18.653-12.706,2.838-4.009,4.306-8.213,2.994-11.374-2.908-7.009-11.8-15.154-18.9-16.066-15.561-1.995-30.149,11.821-29.662,24.231.405,10.349,10.679,16.423,26.919,15.915" transform="translate(-199.414 22.287)" fill="rgba(48,83,153,0.18)" fill-rule="evenodd"/>
    <path id="Fill-12" d="M262.876,2566.37a101.53,101.53,0,0,0,75.668,34.669c22.864.093,52.105-5.167,49.7-41.338-1.358-20.442-33.79-21.956-67.668-50.735s-52.334-58.947-64.364-61.425c-12.938-2.666-22.837,8.518-24.24,23.112-2.95,30.71,19.191,82.43,30.9,95.717Z" transform="translate(956.487 -458.128)" fill="#ebb044" fill-rule="evenodd"/>
    <path id="Fill-977" d="M738.047,2667.34c.1,0,.192-.032.2,0,.059.161.1.337.147.507a.974.974,0,0,1-.176.088c-.058-.163-.1-.337-.173-.592m1.966-1.254c5.2-9.778-3.374-18.577-16.381-21.252s-28.754,15.683-26.587,22.074c4.719,13.913,37.769,8.955,42.968-.822Z" transform="translate(239.93 -1744.713)" fill="#ebb044" fill-rule="evenodd"/>
    <path id="Fill-974" d="M373.891,2937.15c.2-.007.359-.06.379-.006.11.3.186.63.274.95a1.821,1.821,0,0,1-.329.164c-.109-.3-.192-.631-.324-1.108m3.679-2.347c9.73-18.3-6.314-34.764-30.655-39.771s-53.811,29.349-49.755,41.309C305.99,2962.379,367.841,2953.1,377.57,2934.8Z" transform="translate(-227.43 84.287)" fill="#ebb044" fill-rule="evenodd"/>
    <path id="Fill-1906" d="M159.116,2901.2c28.448-38.759,99.965-18.82,157.629,16.1,29.961,18.145,46.661,48.162,54.346,78.272,14.719,57.662-26.82,96.611-78.11,75.566-37.735-15.485-20.2-55.331-57.726-75.7-35.339-19.18-104.586-55.486-76.139-94.244Z" transform="translate(-343.513 -454.713)" fill="#305399" fill-rule="evenodd"/>
    <path id="Fill-33" d="M1096.2,3151.14c6.455-16.561,14.872-32.462,31.821-48.531,30.5-28.917,70.165-34.028,75.906-9.13,5.29,22.937.042,48.894-19.959,78.472-10.107,14.946-24.178,29.273-40.005,41.13-23.773,17.811-40.6,20.729-53.318,2.928-8.724-16.684-4.263-39.677,5.555-64.869Z" transform="translate(-201.98 -404.713)" fill="#dbb79d" fill-rule="evenodd"/>
    <path id="Fill-14" d="M553.529,3169.64c14.071,6.776,23.345,18.526,31.171,30.048,7.2,10.6,13.325,20.266,9.967,27.044-4.311,8.7-21.447,5.131-38.065-8.923-14.516-12.277-26.253-25.249-35.178-38.769-4.136-6.264-1.876-8.6-.167-11.606C527.988,3162.66,539,3162.643,553.529,3169.64Z" transform="translate(-200.678 -411.713)" fill="#dbb79d" fill-rule="evenodd"/>
    <path id="Fill-11-4" data-name="Fill-11" d="M258.173,1032.37c7.42,15.208-.506,29.7-10.02,42.917-8.752,12.16-17.339,22.9-33.879,24.421-21.237,1.953-38.509-13.695-36.627-35.369a98.267,98.267,0,0,1,19.855-51.415c5.337-7.092,12.56-6.753,20.191-7.252C235.344,1008.029,250.511,1016.665,258.173,1032.37Z" transform="matrix(0.454, -0.891, 0.891, 0.454, 153.202, -112.307)" fill="#70a3c5" fill-rule="evenodd"/>
    <path id="Fill-1901" d="M233.519,1927.37c-28.695,22.095-129.563-49.527-129.564-86.957,0-27.475,40.889-60.192,75.575-41.3C265.988,1846.206,262.214,1905.276,233.519,1927.37Z" transform="translate(-199.513 -577.543)" fill="#ebb044" fill-rule="evenodd"/>
    <path id="Fill-174" d="M175.544,1776.16c-53.778,59.991,43.751,117.457-13.68,167.883-31.82,27.938-147.8-69.462-134.814-167.885,3.659-27.731,13.806-55.918,28.241-80.15,30.666-51.473,98.495-93.264,130.555-48.588,26.965,37.577,43.476,68.75-10.3,128.74Z" transform="translate(1068.487 1340.39)" fill="#3ababa" fill-rule="evenodd"/>
    <path id="Fill-973" d="M1459.9,512.733c.253-.107.438-.256.491-.2.294.338.557.727.831,1.1-.12.133-.327.4-.347.378-.294-.343-.564-.725-.975-1.281m3.615-4.889c3.519-28.659-25.571-42.067-59.733-36.425s-55.34,65.044-44.093,78.576c24.487,29.459,100.307-13.493,103.826-42.151Z" transform="translate(-1652.04 433.287)" fill="#ebb044" fill-rule="evenodd"/>
    <path id="Fill-31" d="M789.24,2046.63c11.017,17.679,19.469,36.133,19.919,60.41.811,43.69-132.861-58.478-130.013-78.606,4.276-30.232,17.371-43.808,48.041-37.9C752.873,1998.191,772.481,2019.737,789.24,2046.63Z" transform="translate(693.32 -553.108)" fill="#ebb044" fill-rule="evenodd"/>
    <path id="Fill-1723" d="M1159.24,1316.29c13.124-.41,35.127-22.092,30.306-33.712-4.071-9.813-16.517-21.216-26.466-22.492-21.785-2.794-33.066,38.83-32.384,56.2.568,14.489,5.807.711,28.544,0" transform="translate(-1267.253 394.017)" fill="#dbb79d" fill-rule="evenodd"/>
    <path id="Fill-972" d="M1410.03,2062.72c.206-.007.376-.062.4-.006.116.317.195.661.287,1a1.871,1.871,0,0,1-.345.172c-.114-.32-.2-.661-.339-1.162m48.083,119.339c52.883-61.852,0-121.485-43.183-135.862s-76.54,2.109-94.431,37.165C1308.32,2107.227,1405.231,2243.911,1458.113,2182.059Z" transform="translate(-1625.04 344.431)" fill="#3ababa" fill-rule="evenodd"/>
    <path id="Fill-978" d="M269.477,2167.58c.119-.057.206-.136.23-.1.136.174.256.374.382.565-.057.07-.155.21-.164.2-.136-.176-.26-.372-.448-.658m1.722-2.56c1.828-14.891-11.7-21.663-27.716-18.519s-26.3,34.1-21.128,41.048C233.624,2202.678,269.371,2179.912,271.2,2165.02Z" transform="translate(1295.487 -301.27)" fill="#ebb044" fill-rule="evenodd"/>
    <path id="Fill-3" d="M1432.61,2105.74c2.005-24.872,17.834-46.9,39.084-67.36,13.969-13.454,29.142-24.721,51.167-29.83,39.637-9.194,73.805,14.655,65.044,46.363-8.069,29.21-26.106,53.915-57.771,71.644a129.305,129.305,0,0,1-53.7,15.59c-28.364,1.958-43.265-7.339-43.825-36.407" transform="translate(-48.04 98.813)" fill="#dbb79d" fill-rule="evenodd"/>
    <path id="Fill-975" d="M186.628,2538.26c-.265-.009-.483-.08-.509-.007-.149.406-.251.848-.369,1.277a2.491,2.491,0,0,0,.443.221c.146-.411.257-.848.435-1.491m-4.947-3.154c-13.079-24.6,8.489-46.735,41.213-53.467s72.341,39.456,66.888,55.535c-11.871,35-95.021,22.531-108.1-2.068Z" transform="translate(-545.513 551.025)" fill="#ebb044" fill-rule="evenodd"/>
    <path id="Fill-1722" d="M549.928,2047.348c-6.493-14.2-26.338-30.706-42.2-32.553-34.738-4.042-67.305,23.951-66.218,49.1.906,20.972,23.84,33.279,60.1,32.25,20.926-.594,56.01-31.976,48.323-48.794Z" transform="translate(1060.99 318.599)" fill="rgba(219,183,157,0.2)" fill-rule="evenodd"/>
    <path id="Fill-1" d="M1666.33,1258.67c19.783,31.2-1.348,60.943-26.715,88.061-23.334,24.95-46.23,46.987-90.328,50.108-56.622,4.008-102.67-28.1-97.652-72.573,4.389-38.848,22.23-74.093,52.937-105.5,14.229-14.552,33.485-13.857,53.831-14.881,39.672,4.077,70.059,27.146,97.041,40.842s7.679,8.88,10.886,13.939Z" transform="translate(-68.04 -748.054)" fill="#305399" fill-rule="evenodd"/>
    <path id="Fill-1-2" data-name="Fill-1" d="M1666.33,1258.67c19.783,31.2-1.348,60.943-26.715,88.061-23.334,24.95-46.23,46.987-90.328,50.108-56.622,4.008-102.67-28.1-97.652-72.573,4.389-38.848,22.23-74.093,52.937-105.5,14.229-14.552,33.485-13.857,53.831-14.881,47.061,4.836,87.5,22.557,107.927,54.781Z" transform="translate(-47.04 473.946)" fill="#3ababa" fill-rule="evenodd"/>
  </g>
</svg>
