<svg xmlns="http://www.w3.org/2000/svg" width="150" height="150" viewBox="0 0 150 150">
  <g id="key" transform="translate(-533.38 -1232.014)">
    <path id="key-2" data-name="key" d="M100,1C72.387,1,50,25.423,50,55.545a59.584,59.584,0,0,0,1.137,11.618L0,116.909V151H37.5V137.364H50V123.727H62.5L81.662,106.3A46.17,46.17,0,0,0,100,110.091c27.613,0,50-24.423,50-54.545S127.613,1,100,1ZM60.237,116.909,80.512,98.48A44.4,44.4,0,0,0,100,103.273c24.119,0,43.75-21.409,43.75-47.727S124.119,7.818,100,7.818,56.25,29.227,56.25,55.545A63.468,63.468,0,0,0,58.019,69.6L6.25,119.964v24.218h25V130.545h12.5V116.909Zm1.05-27.273-4.169-5.08L12.5,128.207v9.157L61.288,89.636ZM125,41.909c0-7.527-5.6-13.636-12.5-13.636S100,34.382,100,41.909s5.6,13.636,12.5,13.636S125,49.436,125,41.909Zm-6.25,0a6.555,6.555,0,0,0-6.25-6.818c-3.45,0-6.25,3.409-6.25,6.818s2.8,6.818,6.25,6.818A6.555,6.555,0,0,0,118.75,41.909Z" transform="translate(533.38 1231.014)" fill="#305399" fill-rule="evenodd"/>
  </g>
</svg>
