<svg xmlns="http://www.w3.org/2000/svg" width="98" height="150" viewBox="0 0 98 150">
  <g id="phone" transform="translate(-806.703 -1279.198)">
    <path id="phone-2" data-name="phone" d="M89.75,150H16.25A12.381,12.381,0,0,1,4,137.5V12.5A12.381,12.381,0,0,1,16.25,0h73.5A12.381,12.381,0,0,1,102,12.5v125A12.381,12.381,0,0,1,89.75,150Zm6.125-31.769H10.125V137.5a6.2,6.2,0,0,0,6.125,6.25h73.5a6.191,6.191,0,0,0,6.125-6.25ZM53,136.981a6.251,6.251,0,1,1,6.119-6.25A6.187,6.187,0,0,1,53,136.981ZM95.875,30.731H10.125v81.25h85.75ZM89.75,6.25H16.25a6.2,6.2,0,0,0-6.125,6.25V24.481h85.75V12.5A6.2,6.2,0,0,0,89.75,6.25ZM62.188,18.231H43.813a3.126,3.126,0,0,1,0-6.25H62.188a3.126,3.126,0,0,1,0,6.25Z" transform="translate(802.703 1279.198)" fill="#305399" fill-rule="evenodd"/>
  </g>
</svg>
