<svg xmlns="http://www.w3.org/2000/svg" width="150" height="150" viewBox="0 0 150 150">
  <g id="support" transform="translate(-921.322 -1279.198)">
    <path id="support-2" data-name="support" d="M75,0a75,75,0,1,0,75,75A75,75,0,0,0,75,0Zm56.094,102.394-16.3-9.281a43.425,43.425,0,0,0,0-36.219l16.3-9.281a61.759,61.759,0,0,1,0,54.781ZM12.5,75a62.043,62.043,0,0,1,6.406-27.394l16.3,9.281a43.425,43.425,0,0,0,0,36.219l-16.3,9.281A62,62,0,0,1,12.5,75Zm31.25,0A31.25,31.25,0,1,1,75,106.25,31.285,31.285,0,0,1,43.75,75Zm58.731-56.05L93.2,35.25a43.405,43.405,0,0,0-36.4,0l-9.281-16.3a61.769,61.769,0,0,1,54.962,0ZM47.519,131.05l9.281-16.3a43.4,43.4,0,0,0,36.4,0l9.281,16.3a61.769,61.769,0,0,1-54.962,0Z" transform="translate(921.322 1279.198)" fill="#305399"/>
  </g>
</svg>
