<svg xmlns="http://www.w3.org/2000/svg" width="579" height="399.264" viewBox="0 0 579 399.264">
  <g id="voters" transform="translate(-391.685 -182.35)">
    <g id="Group_64" data-name="Group 64" transform="translate(247.685 100.35)">
      <path id="Path_164" data-name="Path 164" d="M499.109,598.377c-3.59,0-7.2-.146-10.848-.5-13.943-1.358-28.076-2.036-41.95-3.974-31.84-4.45-63.7-4.712-95.768-4.712-12.735,0-25.467-.124-38.2-.124-18.538,0-37.07.263-55.571,1.555-28.867,2.016-57.784,2.338-86.7,2.338q-6.535,0-13.07-.018h-.85c-16.008,0-31.951,1.029-47.934,1.756-16.057.731-31.671,1.93-47.635,1.93q-2.159,0-4.33-.031c-15.951-.229-40.239-5.079-51.619-17.441-6.756-7.345-5.841-25.014.926-32.1,2.956-3.093,7.721-5.517,11.613-6.99,11.09-4.2,22.374-4.209,33.961-4.3l.422,0a83.912,83.912,0,0,1,23.974,4.019c6.972,2.126,14.1,2.872,21.186,4.195a99.979,99.979,0,0,0,18.148,1.6,106.144,106.144,0,0,0,11.769-.647c10.3-1.154,20.664-1.69,30.989-2.6,2.276-.2,4.542-.443,6.8-.712L163.23,553l8.234,2.993,5.455-16.063c2.977-.431,5.954-.867,8.935-1.275l0,29.025,193.932-.024,0-27.781,8.58.277-.075-5.337a72.3,72.3,0,0,1,13.272,1.388,114.055,114.055,0,0,0,20.834,3.288c6.023.24,12.063.319,18.111.319,10.747,0,21.515-.25,32.226-.29,1.074,0,2.566-.011,4.419-.011,23.983,0,107.533,1.15,101.539,24.419-2.3,8.942-15.692,20.579-23.2,24.325a85.249,85.249,0,0,1-30.307,8.475c-8.8.8-17.385,1.65-26.076,1.65Z" transform="translate(144 -117.113)" fill="#efeff0"/>
      <g id="Group_62" data-name="Group 62" transform="translate(148.146 82)">
        <path id="Path_165" data-name="Path 165" d="M223.4,87.433,31.215,148.939,7.118,61.506,199.305,0l24.1,87.433Z" transform="translate(-7.118 0)" fill="#fff"/>
        <path id="Path_166" data-name="Path 166" d="M83.274,151.3l-24.48-38.657,9.823-3.144,9.8,16.521c2.751,4.638,5.331,9.124,7.739,14.147l.176-.056c-.415-5.455-.577-10.921-.569-16.235L85.794,104l9.528-3.05-1.578,47Z" transform="translate(-28.693 -37.585)" fill="#3b455a"/>
        <path id="Path_167" data-name="Path 167" d="M143.709,113.739c2.306,8.368,7.578,13.1,13.577,11.176,6.059-1.939,7.817-9.262,5.528-17.565-2.113-7.67-7.342-13.17-13.518-11.194C143.238,98.094,141.421,105.435,143.709,113.739ZM172.2,104c3.861,14.009-1.681,25.024-13.268,28.733-11.765,3.765-21.284-3.6-24.638-15.774-3.529-12.8,1.421-24.8,13.127-28.55,12.177-3.9,21.531,3.8,24.78,15.591Z" transform="translate(-59.747 -32.535)" fill="#3b455a"/>
        <path id="Path_168" data-name="Path 168" d="M205.274,78.823,194.627,82.23l-2.236-8.113,30.47-9.751L225.1,72.48l-10.823,3.463,9.538,34.609-9,2.881Z" transform="translate(-84.47 -23.964)" fill="#3b455a"/>
        <path id="Path_169" data-name="Path 169" d="M283.261,74.4,268.673,79.07l2.795,10.141L287.762,84l2.183,7.923-25.293,8.095L252.877,57.293l24.471-7.831,2.183,7.923-15.47,4.951,2.445,8.874,14.588-4.668,2.166,7.86Z" transform="translate(-109.723 -18.415)" fill="#3b455a"/>
        <path id="Path_170" data-name="Path 170" d="M507.143,211.922l-119.524-40.49,15.863-54.376,119.524,40.491Z" transform="translate(-165.978 -43.58)" fill="#fff"/>
        <path id="Path_171" data-name="Path 171" d="M434.3,175.5l-.15-29.247,6.109,2.07-.278,12.251c-.079,3.439-.2,6.735-.576,10.244l.109.037c1.554-2.982,3.242-5.876,4.969-8.626l6.458-10.288,5.926,2.008-16.055,23.756L434.3,175.5Z" transform="translate(-185.403 -54.452)" fill="#3b455a"/>
        <path id="Path_172" data-name="Path 172" d="M473.837,176.274c-1.518,5.2-.319,9.638,3.412,10.9,3.769,1.277,7.054-1.855,8.561-7.02,1.391-4.77.465-9.589-3.375-10.89-3.768-1.276-7.091,1.844-8.6,7.008Zm17.919,5.681c-2.541,8.712-8.984,12.334-16.191,9.893-7.316-2.478-9.86-9.881-7.652-17.45,2.324-7.963,8.779-12.317,16.059-9.851,7.573,2.566,9.924,10.076,7.785,17.409Z" transform="translate(-199.18 -61.005)" fill="#3b455a"/>
        <path id="Path_173" data-name="Path 173" d="M521.324,179.667l-6.621-2.243,1.472-5.045,18.95,6.419-1.473,5.046-6.731-2.281-6.28,21.524-5.6-1.9,6.279-21.524Z" transform="translate(-219.036 -64.177)" fill="#3b455a"/>
        <path id="Path_174" data-name="Path 174" d="M559.488,204.508l-9.074-3.073-1.839,6.307,10.134,3.434-1.438,4.927-15.73-5.329,7.751-26.57,15.218,5.156-1.438,4.927-9.622-3.259-1.61,5.519,9.073,3.074-1.426,4.888Z" transform="translate(-230.241 -68.579)" fill="#3b455a"/>
        <path id="Path_175" data-name="Path 175" d="M838.125,95.082,690.349,114.658l-7.669-67.23L830.458,27.852Z" transform="translate(-289.167 -10.369)" fill="#fff"/>
        <path id="Path_176" data-name="Path 176" d="M731.533,110.312,717.889,78.456l7.625-1.011,5.343,13.527c1.5,3.8,2.89,7.459,4.093,11.5l.137-.018c.321-4.088.832-8.151,1.449-12.079l2.31-14.691,7.4-.98-6.581,34.536Z" transform="translate(-303.867 -27.811)" fill="#3b455a"/>
        <path id="Path_177" data-name="Path 177" d="M779.666,88.5c.741,6.495,4.094,10.7,8.751,10.079,4.7-.623,6.846-5.8,6.112-12.247-.679-5.954-3.911-10.72-8.705-10.085C781.12,76.874,778.931,82.058,779.666,88.5Zm22.186-3.388c1.24,10.874-4.126,18.277-13.121,19.469-9.132,1.21-15.322-5.512-16.4-14.959-1.133-9.938,3.909-18.149,13-19.352,9.451-1.253,15.481,5.691,16.525,14.843Z" transform="translate(-326.531 -26.108)" fill="#3b455a"/>
        <path id="Path_178" data-name="Path 178" d="M830.57,71.281l-8.265,1.1-.718-6.3,23.652-3.133.719,6.3-8.4,1.113,3.065,26.864-6.986.926L830.57,71.281Z" transform="translate(-347.161 -23.435)" fill="#3b455a"/>
        <path id="Path_179" data-name="Path 179" d="M889.031,77.386l-11.324,1.5.9,7.873,12.648-1.675.7,6.15-19.634,2.6-3.783-33.163,18.994-2.517.7,6.151L876.225,65.9l.786,6.888,11.323-1.5Z" transform="translate(-366.764 -21.651)" fill="#3b455a"/>
        <path id="Path_180" data-name="Path 180" d="M557.3,292.487l-.391,4.356-7.44,1.8-3.694-3.914.6-5.051,3.981.313.258-1.093,1.4-.717,5.28,4.309Z" transform="translate(-232.009 -107.29)" fill="#e4d2b8"/>
        <path id="Path_181" data-name="Path 181" d="M862.009,399.8l1.589,39.718-4.658,67.533-6.97.533-8.47-61.336-11.715-51.9,30.225,5.454Z" transform="translate(-351.419 -146.815)" fill="#3b455a"/>
        <path id="Path_182" data-name="Path 182" d="M866.671,577.036l7.806,3.484,3.5-4.351-4.037-3.772-7.538.577.268,4.061Z" transform="translate(-365.872 -213.105)" fill="#556362"/>
        <path id="Path_183" data-name="Path 183" d="M797.865,378.811l-1.53,30.021,4.539,89.266,6.979.375,10.46-58.547,9.226-64.2-29.675,3.088Z" transform="translate(-336.618 -139.883)" fill="#3b455a"/>
        <path id="Path_184" data-name="Path 184" d="M807.673,573.676l-7.736,3.66-3.585-4.269,3.962-3.864,7.547.407-.189,4.066Z" transform="translate(-336.626 -211.916)" fill="#556362"/>
        <path id="Path_185" data-name="Path 185" d="M833.926,238.253l-21.78-2.515s-12.116,1.4-20.337,32.4c-4.574,17.251-5.966,44.43-6.3,65.151.514,2.956,3.5,15.9,16.139,13.706,21.7-3.771,33.249-7.542,42.7-5.657,8.049,1.886,7.369-10.058,6.484-19.171l-3.207-28.2Z" transform="translate(-332.098 -87.766)" fill="#7db5db"/>
        <path id="Path_186" data-name="Path 186" d="M845.636,192.145c-5.489-1.3-11.139-2.472-16.634-1.3a4.51,4.51,0,0,0-3.149,1.827,5.444,5.444,0,0,0-.51,1.429c-1.387,5.554-3.145,13.789.248,18.907a8.761,8.761,0,0,0,2.451,2.38,11.591,11.591,0,0,0,4.061,1.717,24.793,24.793,0,0,1-1.229,4.034c1.257,2.042,7.119,2.287,8.2.329q.091-2.541.182-5.082a11.374,11.374,0,0,0,2.051-1.147,14.26,14.26,0,0,0,5.115-7.5c1.044-3.287,2.513-6.411,3.467-9.762a5.059,5.059,0,0,0,.026-3.717c-.634-1.174-2-1.574-3.235-1.87l-1.044-.25Z" transform="translate(-348.015 -70.872)" fill="#a0734b"/>
        <path id="Path_187" data-name="Path 187" d="M822.834,187.359a16.143,16.143,0,0,1,9.334-2.491c7.714.6,10.539,6.706,10.951,14.349,2.125-2.911,6.113-6.571,6.353-10.316.2-3.065-.2-7.245-1.789-9.893-1.491-2.477-5.3-3.837-7.572-5.273l-6.413-4.059a4.157,4.157,0,0,0-1.41-.662,4.033,4.033,0,0,0-1.8.217l-15.156,4.221c-.97.27-2.076.665-2.434,1.674a3.681,3.681,0,0,0,.041,1.941c.573,2.826,1.675,5.715,1.947,8.577.309,1.663,1.228,10.188,3.962,9.2.8-1.414.923-3.155,1.548-4.669a6.6,6.6,0,0,1,2.44-2.821Z" transform="translate(-343.484 -62.911)" fill="#3b455a"/>
        <path id="Path_188" data-name="Path 188" d="M803.143,235.738l-8.05,2.64-29.4,33.189-1.75,10.937L778,307.51l3.8-9.165-5.95-18.481,9.45-7.166,12.6-30.549Z" transform="translate(-323.095 -87.766)" fill="#7db5db"/>
        <path id="Path_189" data-name="Path 189" d="M860.7,202.742l14.971-17.429-3.526-47.235,6.578-3.113,8.948,47.915-2.738,11.942-16.784,24.95Z" transform="translate(-363.49 -50.248)" fill="#7db5db"/>
        <path id="Path_190" data-name="Path 190" d="M683.681,556.762a2.777,2.777,0,0,1,2.593-1.2,2.967,2.967,0,0,1,2.177,1.769,6.4,6.4,0,0,1,.374,2.012c.271,3.543.247,11.955-4.133,13.165-1.84.509-3.363-.9-3.854-2.681C680.1,567.146,681.194,559.714,683.681,556.762Z" transform="translate(-288.303 -206.826)" fill="#323643"/>
        <path id="Path_191" data-name="Path 191" d="M683.207,472.342l.23,21.61c-.267,9.6,1.124,19.251.857,28.852-.061,2.206-.595,4.535-.079,6.723.505,2.14,2.118,2.518,3.775,1.435,2.219-1.452,1.861-4.843,2.231-7.317,1.015-6.8,2.207-13.563,3.267-20.352.52-3.329-.552-7.993-.318-11.362l3.239-18.111Z" transform="translate(-289.387 -175.854)" fill="#efcba0"/>
        <path id="Path_192" data-name="Path 192" d="M702.342,399.239l-8.728,41.781-1.854,39.455-13.84-.335-3.763-110.362,26.83.524,1.356,28.937Z" transform="translate(-285.608 -137.669)" fill="#40495f"/>
        <path id="Path_193" data-name="Path 193" d="M649.386,555.592a2.7,2.7,0,0,1,2.632-1.034,3.064,3.064,0,0,1,2.1,1.908,6.517,6.517,0,0,1,.292,2.037c.13,3.563-.228,11.98-4.641,12.914-1.855.392-3.317-1.115-3.736-2.929C645.4,565.756,646.79,558.387,649.386,555.592Z" transform="translate(-273.804 -206.441)" fill="#323643"/>
        <path id="Path_194" data-name="Path 194" d="M654.922,477.175l-1.175,21.575c-.1,6-.837,11.945-1.413,17.9-.535,5.531.3,11.294-2.385,16.325-.842,1.577-2.542,2.628-3.731.711-.916-1.477-.371-3.941-.547-5.617-.717-6.841-1.611-13.659-2.373-20.494-.374-3.351.9-7.957.815-11.334l-2.444-18.253,13.252-.814Z" transform="translate(-272.045 -177.654)" fill="#efcba0"/>
        <path id="Path_195" data-name="Path 195" d="M633.547,397.159l-1.127,40.557,5.906,41.013,14.078.454-.622-44.386,7.45-36.809,2.5-24.095L639.4,371.054Z" transform="translate(-268.184 -138.144)" fill="#40495f"/>
        <path id="Path_196" data-name="Path 196" d="M655.052,238.455l24.066-.619L693.071,265.8l-4.959,26.192-.883,31.345-34.329.505-11.3-1.977,3-33.491-1.72-44.738,12.168-5.181Z" transform="translate(-272.018 -88.547)" fill="#305399"/>
        <path id="Path_197" data-name="Path 197" d="M617.228,261.061l-8.69,28.706-12.97,5.018-35.481-10.3,4.769-7.948,31.206,1.095,12.836-28.56Z" transform="translate(-237.984 -92.729)" fill="#305399"/>
        <path id="Path_198" data-name="Path 198" d="M666.248,200.187c3.628-11.366,17.553-7.107,20.424,3.014,1.873,6.6-2.859,15.169-9.207,17.065-.028.26-.049.5-.05.708a23.829,23.829,0,0,1-.272,3.164c-.053.395-5.609-.756-6.229-.887a.821.821,0,0,1-.575-.305c-.224-.377.14-1.483.181-1.9q.073-.74.144-1.479c-3.131-1.647-5.107-5.155-5.658-8.726A23.493,23.493,0,0,1,666.248,200.187Z" transform="translate(-281.707 -72.008)" fill="#efcba0"/>
        <path id="Path_199" data-name="Path 199" d="M664.946,186.888a6.2,6.2,0,0,1,1.255,3.051,5.125,5.125,0,0,1,.109,1.977c-.517,2.58-2.892,2.445-4.729,3.277a12.561,12.561,0,0,0-5.486,5.089c-1.986,3.405-1.093,7.787-.287,11.543.284,1.323.854,3.292-.1,4.472-.968,1.2-3.206,1.014-4.365.4-1.059-.564-1.929-1.607-3.092-1.817-1.231-.222-2.895.361-3.468-.856a8.624,8.624,0,0,0-.376-1.063c-.68-1.048-2.372.179-3.331-.56a2.133,2.133,0,0,1-.386-2.189,5.576,5.576,0,0,0,.4-2.323,7.939,7.939,0,0,0-.845-1.81,3.788,3.788,0,0,1,.457-3.789c1.516-1.891,4.45-1.532,6.075-3.31a7.99,7.99,0,0,0,1.489-3.528,6.978,6.978,0,0,1,1.6-3.455c1.117-1.058,2.731-.879,3.834-2.134a24.091,24.091,0,0,1,1.806-2.34,14.081,14.081,0,0,1,4.024-1.928,4.965,4.965,0,0,1,5.418,1.3Z" transform="translate(-271.32 -68.979)" fill="#3b455a"/>
        <path id="Path_200" data-name="Path 200" d="M687.314,201c.065,3.741-1.659,7.786-.06,11.079,1.614,3.324,5.636,3.922,9.065,4.1.564.029,7.8.7,7.832.554a26.772,26.772,0,0,1,2.366-7.552c1.264-2.288,3.377-4.184,5.8-4.346-.7-.131-1.05-1.052-.97-1.828a13.092,13.092,0,0,1,.67-2.223,5.517,5.517,0,0,0-1.269-5.261c-2.56-2.572-7.2-1.5-9.4-4.457-1.361-1.831-1.2-4.487-1.912-6.723-1.379-4.322-5.771-5.227-9.053-7.18-3.465-2.06-6.728-3.19-10.727-2.472-4.958.891-8.644,6.33-6.731,11.449,2.452,6.565,12.257,6,14.093,12.664a8.825,8.825,0,0,1,.295,2.2Z" transform="translate(-284.881 -64.957)" fill="#3b455a"/>
        <path id="Path_201" data-name="Path 201" d="M681.724,238.307l-7.466,11.371-3.51-.309L664.9,237.836l16.825.471Z" transform="translate(-281.744 -88.547)" fill="#e3e3e4"/>
        <path id="Path_202" data-name="Path 202" d="M224.705,253.954,250.8,274.473l22.755-10.594,3.339,6.615-17.234,12.648L250,287.033,224.705,273.91V253.954Z" transform="translate(-97.961 -94.548)" fill="#305399"/>
        <path id="Path_203" data-name="Path 203" d="M280.295,563.52l-.548,4.592,7.974,5.772,4.809-4-3.713-5.182-7.974-5.772Z" transform="translate(-120.941 -208.09)" fill="#40495f"/>
        <path id="Path_204" data-name="Path 204" d="M279.329,481.1l6.149-58.557-7.4-65.555,1.664-13.945,33.047-1.353,1.193,22.7-5.548,58.246-20.872,61.46-8.234-2.993Z" transform="translate(-120.245 -127.212)" fill="#305399"/>
        <path id="Path_205" data-name="Path 205" d="M355.3,348.774l.087,59.092L344.35,483.938l-7.945-.085L332.037,413.5l-10.22-70.411Z" transform="translate(-138.506 -127.734)" fill="#305399"/>
        <path id="Path_206" data-name="Path 206" d="M346.882,570.346l8.549,4.721,4.338-4.582-4.253-4.676-8.592-.092-.043,4.629Z" transform="translate(-148.971 -210.618)" fill="#40495f"/>
        <path id="Path_207" data-name="Path 207" d="M272.171,329.687c.075-2.561.207-4.7.227-5.461.17-6.869.738-13.723,1.536-20.543.715-6.113,1.618-21.286,2.589-27.36.8-5.016,3.594-17.535,5.612-22.187,5.018-11.568,3.468-12.637,25.51-16.072,9.661-1.505,11.944,4.982,19.842,12.443.779.736.736,5.117.917,6.278.319,2.043.659,4.083,1.05,6.113q.461,2.394,1.026,4.767h0s6.631,32.515,11.015,39.421,13.443,16.559-1.71,22.454a51.1,51.1,0,0,1-8.182,2.3s-12.393-1.484-18.766-1.433a100.776,100.776,0,0,0-17.534,1.759,35.755,35.755,0,0,0-11.248,3.648c-3.293,1.854-5.67,4.58-9.012,6.5a1.65,1.65,0,0,1-1.023.316C272.1,342.344,272.011,335.077,272.171,329.687Z" transform="translate(-117.756 -88.55)" fill="#3b455a"/>
        <path id="Path_208" data-name="Path 208" d="M324.677,226.5c-1.112.592-3.737.8-6.475-.352a1.543,1.543,0,0,1-.917-1.445,43.214,43.214,0,0,1,.4-5.356c-2.053-.778-4.427-1.945-4.785-4.259a7.114,7.114,0,0,1,.121-2.2q.724-4.516,1.448-9.031a8.537,8.537,0,0,1,.87-3.005,6.182,6.182,0,0,1,4.407-2.567,14.488,14.488,0,0,1,12.393,3.253,7.2,7.2,0,0,1,2.094,2.975c.606,1.828.153,3.844-.3,5.722l-1.267,5.2c-.486,1.994-1.187,4.26-2.97,5.007-.947.4-2.064.281-2.921.869C325.261,222.342,325.464,224.763,324.677,226.5Z" transform="translate(-134.764 -73.721)" fill="#eac1a4"/>
        <path id="Path_209" data-name="Path 209" d="M343.159,186.9a19.612,19.612,0,0,1,1.395-2.157,37.534,37.534,0,0,0,3.369-4.373c.893-1.636,1.207-3.853.136-5.359a5.376,5.376,0,0,0-2.9-1.8,19.634,19.634,0,0,0-11.1-.221c-3.456.948-6.55,2.518-10.029,1.117-3.269-1.315-5.63-.779-9.047.534-3.7,1.422-8.661,1.757-12.008,3.764A10.267,10.267,0,0,0,299.592,182a17.094,17.094,0,0,0-.041,16.952,22.728,22.728,0,0,0,2.315,3.145c1.744,2.038,3.83,4.556,6.23,5.312.058-2.313-1.9-9.607-.249-11.5,2.616-3.009,8.531-1.959,11.776-1.218,3.54.808,6.7,3.509,10.2,4.087,2.526.415,5.749-.92,7.9-2.326C340.374,194.709,341.608,189.645,343.159,186.9Z" transform="translate(-128.279 -64.145)" fill="#3b455a"/>
        <path id="Path_210" data-name="Path 210" d="M280.836,245.277l-13.753,12.986-15.344,34.746,19.38,24.845,3.334-13.893,6.384-58.683Z" transform="translate(-109.248 -91.317)" fill="#3b455a"/>
        <path id="Path_211" data-name="Path 211" d="M184.762,408.038l-29.477-10.66,7.476,54.879-2.221,47.614-.086.319.07.006,0,.1,5.77.414v-.006l.214.019L178.228,458l5.6-45.3Z" transform="translate(-68.978 -147.945)" fill="#cfd0d1"/>
        <path id="Path_212" data-name="Path 212" d="M168.493,565.47l-5.972.021-1.38,5.473.152.044-.038.006,10.034,6,4.706.417.443-5.8-1.294-.961-6.65-5.2Z" transform="translate(-71.423 -210.526)" fill="#40495f"/>
        <path id="Path_213" data-name="Path 213" d="M223.342,411.268l-6.248,94.551-5.767.46-7.154-50.729-11.4-50.39Z" transform="translate(-84.629 -150.843)" fill="#cfd0d1"/>
        <path id="Path_214" data-name="Path 214" d="M229.9,569.009l7.772,4.437-.613,3.911-13.724-1.8.655-5.627Z" transform="translate(-97.388 -211.844)" fill="#40495f"/>
        <path id="Path_215" data-name="Path 215" d="M141.47,365.93c-.615-15.984,12.632-66.811,12.632-66.811h0a96.127,96.127,0,0,0,3.109-14.5c.456-3.467,10.1-42.874,9.458-42.924,6.641.523,19.447-1.169,24.366,3.914.14.145.275.3.4.453,3.836,4.713,5.828,14.256,7.641,20.13a167.781,167.781,0,0,1,5.462,23.648c1.092,7.012,1.742,14.094,2.2,21.185.394,6.095.081,12.156.274,18.152.213,6.637,2.061,13.834,3.439,20.291a118.924,118.924,0,0,0,5.587,19.071c-6.594,3.145-13.938,3.994-21.149,4.024s-14.412-.721-21.622-.6c-6.1.1-12.269.817-18.243-.5-4.75-1.048-9.136-3.327-13.556-5.526h0Z" transform="translate(-63.202 -89.982)" fill="#305399"/>
        <path id="Path_216" data-name="Path 216" d="M223.778,211.672c3.031,1.614,6.191,5.774,6,9.646-.094,1.865-1.051,3.314-1.078,5.314-.068,3.943-5.615,8.072-2.219,11.874,1.745,1.955,4.474,2.338,6.978,2.609a1.719,1.719,0,0,0,.9-.065,1.425,1.425,0,0,0,.678-1.343,6.061,6.061,0,0,0-.356-1.572c-1.594-5.4.813-11.691,1.1-17.191s-.923-11.415-5.1-14.992c-2.8.92-4.887,2.194-6.263,4.979Z" transform="translate(-97.574 -76.676)" fill="#3b455a"/>
        <path id="Path_217" data-name="Path 217" d="M211.979,235.89c3.453-.468,6.388-3.214,8-6.54a25.346,25.346,0,0,0,2.071-10.918c.055-12.479-14.276-13.322-20.037-4.413-5.021,7.764-.07,23.233,9.969,21.87Z" transform="translate(-87.658 -77.47)" fill="#eac1a4"/>
        <path id="Path_218" data-name="Path 218" d="M175.433,232.837a9.591,9.591,0,0,0,4.918-2.767c2.225-2.618,2.89-7.546,3.938-10.807,1.1-3.437,2.411-7.151,5.31-9.015,1.894-1.216,3.8-1.123,5.874-.722,1.421.274,1.37.863,2.716.3a6.594,6.594,0,0,0,2.569-3.194,6.9,6.9,0,0,0-.512-5.548,8.5,8.5,0,0,0-5.826-4.742c-9.187-2.17-17.187,2.261-21.556,11.426-2.1,4.405-2.121,9.8-4.274,14.011-1.329,2.6-3.314,4.1-4.521,6.913-3.131,7.3-8.846,16.272-9.99,24.263a1.211,1.211,0,0,0,.1.866c.343.484,1.053.132,1.5-.244l7.783-6.6a14.465,14.465,0,0,0,2.81-2.876c1.888-2.82,1.934-6.975,4.47-9.125a12.487,12.487,0,0,1,4.694-2.137Z" transform="translate(-68.462 -72.895)" fill="#3b455a"/>
        <path id="Path_219" data-name="Path 219" d="M111.248,226.02c-1.736.349-6.257-.955-7.295-2.674-2.4-3.968,3.289-2.746,5.344-2.8a12.867,12.867,0,0,1-.575-2.291c-.083-.722,6.02,1.152,6.607,1.842,1.411,1.653.768,2.9.641,4.993-1.576.27-3.15.615-4.722.931Z" transform="translate(-47.305 -81.196)" fill="#d9caaf"/>
        <path id="Path_220" data-name="Path 220" d="M164.376,267.6l-33.35-5.979-15.357-33.559,6.1-5.421,16.251,23.239L155,245.106l15.716.734Z" transform="translate(-52.438 -82.891)" fill="#305399"/>
        <path id="Path_221" data-name="Path 221" d="M883.64,129.553v-4.324l-4.623-6.59-3.164,3.042,2.072,5.855-1.31,2.017L878.47,132Z" transform="translate(-369.818 -44.17)" fill="#a0734b"/>
        <path id="Path_222" data-name="Path 222" d="M443.634,220.732l5.046-6.861-2.626-2.451-4.422,3.874-.743-1.781-3.654,6.438,2.412,2.946Z" transform="translate(-186.693 -78.712)" fill="#d9caaf"/>
        <path id="Path_223" data-name="Path 223" d="M337.429,235.4l38.448,2.511,19.689-12.9,3.469,3.624-14.547,22.544-27.855,6.4Z" transform="translate(-145.024 -83.771)" fill="#3b455a"/>
        <path id="Path_224" data-name="Path 224" d="M512.989,482.592l-193.932.024-.019-176.258,193.932-.024Z" transform="translate(-137.346 -114.049)" fill="#7db5db"/>
        <path id="Path_225" data-name="Path 225" d="M513.9,350.842l-200.482.026,0-44.509,200.481-.026Z" transform="translate(-134.998 -114.049)" fill="#587bc9"/>
        <path id="Path_226" data-name="Path 226" d="M651.983,383.745l0-6.46h0Z" transform="translate(-276.349 -140.464)" fill="#394255" fill-rule="evenodd"/>
        <path id="Path_227" data-name="Path 227" d="M319.041,387.365h-.01v-.355l.01,0Z" transform="translate(-137.343 -144.084)" fill="#2b4b89"/>
        <path id="Path_228" data-name="Path 228" d="M319.031,383.39v-6.1h.009v6.1l-.01,0Z" transform="translate(-137.342 -140.464)" fill="#353e51"/>
        <path id="Path_229" data-name="Path 229" d="M512.982,383.745H319.047v-6.46H512.982l0,6.46" transform="translate(-137.349 -140.464)" fill="#70a3c5"/>
        <path id="Path_230" data-name="Path 230" d="M496.744,423.195l-13.856-14.93-25.812,27.814-25.812-27.814-13.855,14.93,25.812,27.815-25.812,27.815,13.855,14.93,25.812-27.815,25.812,27.815,13.856-14.93L470.932,451.01Z" transform="translate(-178.416 -151.998)" fill="#fff"/>
        <path id="Path_231" data-name="Path 231" d="M312.14,365.451l7.048,4.354,1.859-3.165-4.214-4.134,1.524-1.056-6.452-2.935-2.344,3.009Z" transform="translate(-133.388 -133.476)" fill="#d9caaf"/>
        <path id="Path_232" data-name="Path 232" d="M686.03,363.657,596.945,381.69l-7.065-40.528,89.084-18.034Z" transform="translate(-250.423 -120.301)" fill="#fff"/>
        <path id="Path_233" data-name="Path 233" d="M621.412,380.593l-9.34-18.609,4.553-.921,3.695,7.92c1.037,2.223,2,4.37,2.87,6.75l.082-.017c.048-2.474.211-4.94.444-7.328l.87-8.936,4.417-.894-2.737,21.054-4.853.983Z" transform="translate(-259.688 -133.491)" fill="#3b455a"/>
        <path id="Path_234" data-name="Path 234" d="M649.91,365.953c.676,3.879,2.843,6.268,5.623,5.706,2.809-.569,3.915-3.774,3.245-7.622-.62-3.555-2.734-6.29-5.6-5.711C650.373,358.894,649.24,362.1,649.91,365.953ZM663.142,363c1.131,6.493-1.835,11.169-7.206,12.256-5.452,1.1-9.416-2.687-10.4-8.328-1.034-5.934,1.71-11.083,7.135-12.182,5.644-1.142,9.518,2.788,10.471,8.253Z" transform="translate(-273.57 -132)" fill="#3b455a"/>
        <path id="Path_235" data-name="Path 235" d="M679.589,353.448l-4.935,1-.656-3.76,14.123-2.86.656,3.761L683.76,352.6l2.8,16.04-4.171.845-2.8-16.041Z" transform="translate(-285.543 -129.497)" fill="#3b455a"/>
        <path id="Path_236" data-name="Path 236" d="M714.961,354.97l-6.762,1.368.819,4.7,7.552-1.529.64,3.673-11.723,2.373-3.452-19.8,11.342-2.3.64,3.672-7.17,1.451.716,4.113,6.762-1.368Z" transform="translate(-297.248 -127.871)" fill="#3b455a"/>
        <path id="Path_237" data-name="Path 237" d="M725.43,374.854l4.051.308,1.862,7.967-3.535,4.082-4.7-.517.186-4.3-1.021-.249-.7-1.491Z" transform="translate(-305.405 -139.559)" fill="#e4d2b8"/>
        <path id="Path_238" data-name="Path 238" d="M701.181,237.951l11.36,5.728L732.5,282.046l-8.173,42.384-8.66-.29,2.279-37.293L705,265.38Z" transform="translate(-296.891 -88.59)" fill="#305399"/>
      </g>
    </g>
  </g>
</svg>
